<svg xmlns="http://www.w3.org/2000/svg" xmlns:xlink="http://www.w3.org/1999/xlink" width="500" zoomAndPan="magnify" viewBox="0 0 375 374.999991" height="500" preserveAspectRatio="xMidYMid meet" version="1.0"><defs><g/></defs><g fill="#ff3131" fill-opacity="1"><g transform="translate(0.0000045, 97.325253)"><g><path d="M 45.1875 0 L 42.8125 -29.78125 L 42.5 -29.78125 L 32.21875 -0.296875 L 25.390625 -0.296875 L 15.09375 -29.78125 L 14.796875 -29.78125 L 12.421875 0 L 0.96875 0 L 5.484375 -50.234375 L 17.65625 -50.234375 L 28.796875 -21.25 L 39.9375 -50.234375 L 52.125 -50.234375 L 56.625 0 Z M 45.1875 0 "/></g></g></g><g fill="#ff3131" fill-opacity="1"><g transform="translate(55.595308, 97.325253)"><g><path d="M 15.53125 -65.515625 C 16.625 -66.609375 17.941406 -67.15625 19.484375 -67.15625 C 21.023438 -67.15625 22.34375 -66.609375 23.4375 -65.515625 C 24.539062 -64.421875 25.09375 -63.101562 25.09375 -61.5625 C 25.09375 -60.019531 24.539062 -58.695312 23.4375 -57.59375 C 22.34375 -56.5 21.023438 -55.953125 19.484375 -55.953125 C 17.941406 -55.953125 16.625 -56.5 15.53125 -57.59375 C 14.4375 -58.695312 13.890625 -60.019531 13.890625 -61.5625 C 13.890625 -63.101562 14.4375 -64.421875 15.53125 -65.515625 Z M 29.953125 -65.515625 C 31.054688 -66.609375 32.378906 -67.15625 33.921875 -67.15625 C 35.460938 -67.15625 36.78125 -66.609375 37.875 -65.515625 C 38.96875 -64.421875 39.515625 -63.101562 39.515625 -61.5625 C 39.515625 -60.019531 38.96875 -58.695312 37.875 -57.59375 C 36.78125 -56.5 35.460938 -55.953125 33.921875 -55.953125 C 32.378906 -55.953125 31.054688 -56.5 29.953125 -57.59375 C 28.859375 -58.695312 28.3125 -60.019531 28.3125 -61.5625 C 28.3125 -63.101562 28.859375 -64.421875 29.953125 -65.515625 Z M 1.40625 -25.140625 C 1.40625 -32.410156 3.878906 -38.5625 8.828125 -43.59375 C 13.773438 -48.625 19.742188 -51.140625 26.734375 -51.140625 C 33.753906 -51.140625 39.71875 -48.632812 44.625 -43.625 C 49.539062 -38.613281 52 -32.453125 52 -25.140625 C 52 -17.796875 49.582031 -11.617188 44.75 -6.609375 C 39.925781 -1.597656 33.921875 0.90625 26.734375 0.90625 C 19.378906 0.90625 13.316406 -1.578125 8.546875 -6.546875 C 3.785156 -11.515625 1.40625 -17.710938 1.40625 -25.140625 Z M 13.765625 -25.140625 C 13.765625 -22.503906 14.171875 -20.097656 14.984375 -17.921875 C 15.796875 -15.753906 17.210938 -13.921875 19.234375 -12.421875 C 21.265625 -10.921875 23.765625 -10.171875 26.734375 -10.171875 C 30.992188 -10.171875 34.207031 -11.628906 36.375 -14.546875 C 38.550781 -17.472656 39.640625 -21.003906 39.640625 -25.140625 C 39.640625 -29.242188 38.53125 -32.765625 36.3125 -35.703125 C 34.101562 -38.648438 30.910156 -40.125 26.734375 -40.125 C 22.585938 -40.125 19.390625 -38.648438 17.140625 -35.703125 C 14.890625 -32.765625 13.765625 -29.242188 13.765625 -25.140625 Z M 13.765625 -25.140625 "/></g></g></g><g fill="#ff3131" fill-opacity="1"><g transform="translate(106.988968, 97.325253)"><g><path d="M 15.09375 -50.234375 L 15.09375 -10.046875 L 32.390625 -10.046875 L 32.390625 0 L 3.65625 0 L 3.65625 -50.234375 Z M 15.09375 -50.234375 "/></g></g></g><g fill="#ff3131" fill-opacity="1"><g transform="translate(139.383872, 97.325253)"><g><path d="M 15.09375 -31.171875 L 15.09375 0 L 3.65625 0 L 3.65625 -50.234375 L 15.09375 -50.234375 L 35.078125 -19.0625 L 35.1875 -19.0625 L 35.1875 -50.234375 L 46.640625 -50.234375 L 46.640625 0 L 35.1875 0 L 15.21875 -31.171875 Z M 15.09375 -31.171875 "/></g></g></g><g fill="#ff3131" fill-opacity="1"><g transform="translate(187.671958, 97.325253)"><g><path d="M 3.65625 -50.234375 L 18.203125 -50.234375 C 25.179688 -50.234375 31.144531 -47.847656 36.09375 -43.078125 C 41.050781 -38.304688 43.53125 -32.328125 43.53125 -25.140625 C 43.53125 -17.921875 41.0625 -11.925781 36.125 -7.15625 C 31.195312 -2.382812 25.222656 0 18.203125 0 L 3.65625 0 Z M 15.09375 -10.234375 L 16.859375 -10.234375 C 21.046875 -10.234375 24.46875 -11.640625 27.125 -14.453125 C 29.78125 -17.273438 31.128906 -20.820312 31.171875 -25.09375 C 31.171875 -29.351562 29.84375 -32.898438 27.1875 -35.734375 C 24.53125 -38.578125 21.085938 -40 16.859375 -40 L 15.09375 -40 Z M 15.09375 -10.234375 "/></g></g></g><g fill="#ff3131" fill-opacity="1"><g transform="translate(230.601419, 97.325253)"><g><path d="M 29.171875 -50.234375 L 49.4375 0 L 37.140625 0 L 33.421875 -10.046875 L 14.3125 -10.046875 L 10.59375 0 L -1.703125 0 L 18.578125 -50.234375 Z M 29.53125 -20.09375 L 23.9375 -34.703125 L 23.8125 -34.703125 L 18.203125 -20.09375 Z M 29.53125 -20.09375 "/></g></g></g><g fill="#ff3131" fill-opacity="1"><g transform="translate(276.331982, 97.325253)"><g><path d="M 15.09375 -50.234375 L 15.09375 -10.046875 L 32.390625 -10.046875 L 32.390625 0 L 3.65625 0 L 3.65625 -50.234375 Z M 15.09375 -50.234375 "/></g></g></g><g fill="#ff3131" fill-opacity="1"><g transform="translate(308.726887, 97.325253)"><g><path d="M 22.171875 -51.140625 C 24.890625 -51.140625 27.546875 -50.742188 30.140625 -49.953125 C 32.734375 -49.160156 34.660156 -48.378906 35.921875 -47.609375 L 37.75 -46.40625 L 33.125 -37.265625 C 32.757812 -37.503906 32.25 -37.816406 31.59375 -38.203125 C 30.945312 -38.585938 29.726562 -39.101562 27.9375 -39.75 C 26.15625 -40.40625 24.492188 -40.734375 22.953125 -40.734375 C 21.046875 -40.734375 19.570312 -40.328125 18.53125 -39.515625 C 17.5 -38.703125 16.984375 -37.609375 16.984375 -36.234375 C 16.984375 -35.535156 17.226562 -34.890625 17.71875 -34.296875 C 18.207031 -33.710938 19.039062 -33.085938 20.21875 -32.421875 C 21.394531 -31.753906 22.425781 -31.21875 23.3125 -30.8125 C 24.207031 -30.40625 25.59375 -29.796875 27.46875 -28.984375 C 30.707031 -27.597656 33.472656 -25.71875 35.765625 -23.34375 C 38.066406 -20.976562 39.21875 -18.289062 39.21875 -15.28125 C 39.21875 -12.394531 38.695312 -9.875 37.65625 -7.71875 C 36.625 -5.570312 35.203125 -3.890625 33.390625 -2.671875 C 31.585938 -1.460938 29.585938 -0.566406 27.390625 0.015625 C 25.203125 0.609375 22.832031 0.90625 20.28125 0.90625 C 18.082031 0.90625 15.925781 0.679688 13.8125 0.234375 C 11.707031 -0.203125 9.941406 -0.753906 8.515625 -1.421875 C 7.097656 -2.097656 5.820312 -2.757812 4.6875 -3.40625 C 3.550781 -4.0625 2.71875 -4.609375 2.1875 -5.046875 L 1.40625 -5.71875 L 7.125 -15.34375 C 7.613281 -14.9375 8.28125 -14.414062 9.125 -13.78125 C 9.976562 -13.15625 11.488281 -12.316406 13.65625 -11.265625 C 15.832031 -10.210938 17.753906 -9.6875 19.421875 -9.6875 C 24.253906 -9.6875 26.671875 -11.328125 26.671875 -14.609375 C 26.671875 -15.304688 26.5 -15.945312 26.15625 -16.53125 C 25.8125 -17.125 25.203125 -17.710938 24.328125 -18.296875 C 23.453125 -18.890625 22.675781 -19.359375 22 -19.703125 C 21.332031 -20.046875 20.238281 -20.570312 18.71875 -21.28125 C 17.195312 -21.988281 16.070312 -22.523438 15.34375 -22.890625 C 12.300781 -24.390625 9.945312 -26.265625 8.28125 -28.515625 C 6.613281 -30.773438 5.78125 -33.203125 5.78125 -35.796875 C 5.78125 -40.304688 7.441406 -43.988281 10.765625 -46.84375 C 14.097656 -49.707031 17.898438 -51.140625 22.171875 -51.140625 Z M 22.171875 -51.140625 "/></g></g></g><g fill="#ff3131" fill-opacity="1"><g transform="translate(0.0000045, 206.836818)"><g><path d="M 47.15625 -16.0625 C 49.875 -16.0625 52.507812 -16.472656 55.0625 -17.296875 C 57.613281 -18.117188 59.484375 -18.90625 60.671875 -19.65625 L 62.46875 -20.890625 L 70.03125 -5.765625 C 69.78125 -5.578125 69.429688 -5.320312 68.984375 -5 C 68.546875 -4.6875 67.523438 -4.101562 65.921875 -3.25 C 64.316406 -2.40625 62.597656 -1.664062 60.765625 -1.03125 C 58.941406 -0.40625 56.546875 0.15625 53.578125 0.65625 C 50.617188 1.164062 47.566406 1.421875 44.421875 1.421875 C 37.171875 1.421875 30.300781 -0.359375 23.8125 -3.921875 C 17.320312 -7.484375 12.09375 -12.382812 8.125 -18.625 C 4.15625 -24.863281 2.171875 -31.601562 2.171875 -38.84375 C 2.171875 -44.320312 3.335938 -49.582031 5.671875 -54.625 C 8.003906 -59.664062 11.109375 -63.984375 14.984375 -67.578125 C 18.859375 -71.171875 23.378906 -74.035156 28.546875 -76.171875 C 33.710938 -78.316406 39.003906 -79.390625 44.421875 -79.390625 C 49.460938 -79.390625 54.109375 -78.789062 58.359375 -77.59375 C 62.617188 -76.394531 65.628906 -75.195312 67.390625 -74 L 70.03125 -72.203125 L 62.46875 -57.09375 C 62.03125 -57.46875 61.367188 -57.921875 60.484375 -58.453125 C 59.609375 -58.992188 57.847656 -59.703125 55.203125 -60.578125 C 52.554688 -61.460938 49.875 -61.90625 47.15625 -61.90625 C 42.875 -61.90625 39.03125 -61.210938 35.625 -59.828125 C 32.226562 -58.441406 29.535156 -56.613281 27.546875 -54.34375 C 25.566406 -52.070312 24.054688 -49.628906 23.015625 -47.015625 C 21.972656 -44.398438 21.453125 -41.738281 21.453125 -39.03125 C 21.453125 -33.113281 23.671875 -27.804688 28.109375 -23.109375 C 32.554688 -18.410156 38.90625 -16.0625 47.15625 -16.0625 Z M 47.15625 -16.0625 "/></g></g></g><g fill="#ff3131" fill-opacity="1"><g transform="translate(68.045536, 206.836818)"><g><path d="M 23.4375 -77.96875 L 23.4375 0 L 5.671875 0 L 5.671875 -77.96875 Z M 23.4375 -77.96875 "/></g></g></g><g fill="#ff3131" fill-opacity="1"><g transform="translate(94.034917, 206.836818)"><g><path d="M 0.75 -62.375 L 0.75 -77.96875 L 55.578125 -77.96875 L 55.578125 -62.375 L 37.046875 -62.375 L 37.046875 0 L 19.28125 0 L 19.28125 -62.375 Z M 0.75 -62.375 "/></g></g></g><g fill="#ff3131" fill-opacity="1"><g transform="translate(147.24265, 206.836818)"><g><path d="M -2.828125 -77.96875 L 18.53125 -77.96875 L 34.78125 -53.015625 L 51.03125 -77.96875 L 72.40625 -77.96875 L 43.671875 -34.96875 L 43.671875 0 L 25.890625 0 L 25.890625 -34.96875 Z M -2.828125 -77.96875 "/></g></g></g><g fill="#ff3131" fill-opacity="1"><g transform="translate(213.681556, 206.836818)"><g/></g></g><g fill="#ff3131" fill-opacity="1"><g transform="translate(236.363147, 206.836818)"><g><path d="M 5.671875 -77.96875 L 29.859375 -77.96875 C 37.171875 -77.96875 43 -76.410156 47.34375 -73.296875 C 51.695312 -70.179688 53.875 -65.125 53.875 -58.125 C 53.875 -50.3125 50.628906 -44.734375 44.140625 -41.390625 C 55.234375 -39.441406 60.78125 -32.890625 60.78125 -21.734375 C 60.78125 -15.179688 58.507812 -9.921875 53.96875 -5.953125 C 49.425781 -1.984375 43.1875 0 35.25 0 L 5.671875 0 Z M 23.4375 -47.453125 L 24.859375 -47.453125 C 28.828125 -47.453125 31.785156 -48.144531 33.734375 -49.53125 C 35.691406 -50.914062 36.671875 -53.179688 36.671875 -56.328125 C 36.671875 -61.617188 32.734375 -64.265625 24.859375 -64.265625 L 23.4375 -64.265625 Z M 23.4375 -13.703125 L 29.015625 -13.703125 C 37.710938 -13.703125 42.0625 -16.601562 42.0625 -22.40625 C 42.0625 -25.863281 40.972656 -28.347656 38.796875 -29.859375 C 36.617188 -31.378906 33.359375 -32.140625 29.015625 -32.140625 L 23.4375 -32.140625 Z M 23.4375 -13.703125 "/></g></g></g><g fill="#ff3131" fill-opacity="1"><g transform="translate(296.18646, 206.836818)"><g><path d="M 23.4375 -77.96875 L 23.4375 0 L 5.671875 0 L 5.671875 -77.96875 Z M 23.4375 -77.96875 "/></g></g></g><g fill="#ff3131" fill-opacity="1"><g transform="translate(322.175836, 206.836818)"><g><path d="M 23.4375 -77.96875 L 23.4375 -15.59375 L 50.28125 -15.59375 L 50.28125 0 L 5.671875 0 L 5.671875 -77.96875 Z M 23.4375 -77.96875 "/></g></g></g><g fill="#ff3131" fill-opacity="1"><g transform="translate(0.0000045, 329.045375)"><g><path d="M 2.734375 -20.515625 C 2.734375 -22.835938 3.269531 -25.070312 4.34375 -27.21875 C 5.414062 -29.363281 6.925781 -31.316406 8.875 -33.078125 C 10.832031 -34.847656 12.816406 -36.394531 14.828125 -37.71875 C 16.847656 -39.039062 19.148438 -40.394531 21.734375 -41.78125 C 16.503906 -48.332031 13.890625 -54.097656 13.890625 -59.078125 C 13.890625 -65.242188 16.046875 -70.171875 20.359375 -73.859375 C 24.679688 -77.546875 30.8125 -79.390625 38.75 -79.390625 C 46.0625 -79.390625 51.75 -77.34375 55.8125 -73.25 C 59.875 -69.15625 61.90625 -64.429688 61.90625 -59.078125 C 61.90625 -56.867188 61.367188 -54.707031 60.296875 -52.59375 C 59.222656 -50.488281 57.945312 -48.691406 56.46875 -47.203125 C 54.988281 -45.722656 53.492188 -44.414062 51.984375 -43.28125 C 50.472656 -42.15625 49.179688 -41.304688 48.109375 -40.734375 L 46.5 -39.890625 L 56.890625 -29.109375 C 59.160156 -30.117188 62.972656 -33.394531 68.328125 -38.9375 L 79.296875 -28.171875 C 75.765625 -24.128906 72.078125 -20.566406 68.234375 -17.484375 L 85.0625 0 L 62.65625 0 L 54.90625 -8.03125 C 52.519531 -6.332031 50.757812 -5.117188 49.625 -4.390625 C 48.488281 -3.671875 46.800781 -2.742188 44.5625 -1.609375 C 42.320312 -0.472656 40.019531 0.3125 37.65625 0.75 C 35.300781 1.195312 32.703125 1.421875 29.859375 1.421875 C 27.410156 1.421875 24.988281 1.210938 22.59375 0.796875 C 20.195312 0.390625 17.785156 -0.332031 15.359375 -1.375 C 12.929688 -2.414062 10.800781 -3.722656 8.96875 -5.296875 C 7.144531 -6.867188 5.648438 -8.960938 4.484375 -11.578125 C 3.316406 -14.191406 2.734375 -17.171875 2.734375 -20.515625 Z M 38.75 -66.828125 C 36.476562 -66.828125 34.773438 -66.097656 33.640625 -64.640625 C 32.515625 -63.191406 31.953125 -61.335938 31.953125 -59.078125 C 31.953125 -57.753906 32.421875 -56.285156 33.359375 -54.671875 C 34.304688 -53.066406 35.253906 -51.789062 36.203125 -50.84375 L 37.625 -49.53125 C 43.414062 -52.675781 46.3125 -55.859375 46.3125 -59.078125 C 46.3125 -64.242188 43.789062 -66.828125 38.75 -66.828125 Z M 43.375 -19.84375 L 31 -32.046875 C 30.8125 -31.984375 30.523438 -31.867188 30.140625 -31.703125 C 29.765625 -31.546875 29.101562 -31.164062 28.15625 -30.5625 C 27.21875 -29.96875 26.398438 -29.304688 25.703125 -28.578125 C 25.015625 -27.859375 24.367188 -26.898438 23.765625 -25.703125 C 23.171875 -24.503906 22.875 -23.242188 22.875 -21.921875 C 22.875 -19.847656 23.753906 -18.242188 25.515625 -17.109375 C 27.285156 -15.972656 29.332031 -15.40625 31.65625 -15.40625 C 33.550781 -15.40625 35.472656 -15.765625 37.421875 -16.484375 C 39.378906 -17.210938 40.863281 -17.957031 41.875 -18.71875 Z M 43.375 -19.84375 "/></g></g></g><g fill="#ff3131" fill-opacity="1"><g transform="translate(75.606195, 329.045375)"><g/></g></g><g fill="#ff3131" fill-opacity="1"><g transform="translate(98.287792, 329.045375)"><g><path d="M 5.671875 -77.96875 L 34.125 -77.96875 C 42.0625 -77.96875 48.488281 -75.921875 53.40625 -71.828125 C 58.320312 -67.734375 60.78125 -61.78125 60.78125 -53.96875 C 60.78125 -46.15625 58.289062 -40.023438 53.3125 -35.578125 C 48.332031 -31.140625 41.9375 -28.921875 34.125 -28.921875 L 23.4375 -28.921875 L 23.4375 0 L 5.671875 0 Z M 23.4375 -43.09375 L 28.453125 -43.09375 C 32.421875 -43.09375 35.679688 -43.894531 38.234375 -45.5 C 40.785156 -47.113281 42.0625 -49.75 42.0625 -53.40625 C 42.0625 -57.125 40.785156 -59.785156 38.234375 -61.390625 C 35.679688 -62.992188 32.421875 -63.796875 28.453125 -63.796875 L 23.4375 -63.796875 Z M 23.4375 -43.09375 "/></g></g></g><g fill="#ff3131" fill-opacity="1"><g transform="translate(158.111117, 329.045375)"><g><path d="M 23.4375 -77.96875 L 23.4375 -15.59375 L 50.28125 -15.59375 L 50.28125 0 L 5.671875 0 L 5.671875 -77.96875 Z M 23.4375 -77.96875 "/></g></g></g><g fill="#ff3131" fill-opacity="1"><g transform="translate(208.389115, 329.045375)"><g><path d="M 21.828125 -98.765625 C 21.828125 -102.671875 23.289062 -105.882812 26.21875 -108.40625 C 29.15625 -110.925781 32.765625 -112.1875 37.046875 -112.1875 C 41.398438 -112.1875 45.023438 -110.925781 47.921875 -108.40625 C 50.816406 -105.882812 52.265625 -102.671875 52.265625 -98.765625 C 52.265625 -94.796875 50.847656 -91.550781 48.015625 -89.03125 C 45.179688 -86.507812 41.523438 -85.25 37.046875 -85.25 C 32.515625 -85.25 28.84375 -86.507812 26.03125 -89.03125 C 23.226562 -91.550781 21.828125 -94.796875 21.828125 -98.765625 Z M 31.28125 -98.765625 C 31.28125 -97.066406 31.816406 -95.632812 32.890625 -94.46875 C 33.960938 -93.300781 35.347656 -92.71875 37.046875 -92.71875 C 38.679688 -92.71875 40.050781 -93.300781 41.15625 -94.46875 C 42.257812 -95.632812 42.8125 -97.066406 42.8125 -98.765625 C 42.8125 -100.398438 42.242188 -101.785156 41.109375 -102.921875 C 39.972656 -104.054688 38.617188 -104.625 37.046875 -104.625 C 35.472656 -104.625 34.117188 -104.039062 32.984375 -102.875 C 31.847656 -101.707031 31.28125 -100.335938 31.28125 -98.765625 Z M 45.265625 -77.96875 L 76.75 0 L 57.65625 0 L 51.890625 -15.59375 L 22.21875 -15.59375 L 16.453125 0 L -2.640625 0 L 28.828125 -77.96875 Z M 45.84375 -31.1875 L 37.140625 -53.875 L 36.953125 -53.875 L 28.265625 -31.1875 Z M 45.84375 -31.1875 "/></g></g></g><g fill="#ff3131" fill-opacity="1"><g transform="translate(279.364411, 329.045375)"><g><path d="M 0.75 -62.375 L 0.75 -77.96875 L 55.578125 -77.96875 L 55.578125 -62.375 L 37.046875 -62.375 L 37.046875 0 L 19.28125 0 L 19.28125 -62.375 Z M 0.75 -62.375 "/></g></g></g></svg>